<?xml version="1.0" encoding="utf-8" standalone="no"?>
<!DOCTYPE svg PUBLIC "-//W3C//DTD SVG 1.1//EN"
  "http://www.w3.org/Graphics/SVG/1.1/DTD/svg11.dtd">
<svg xmlns:xlink="http://www.w3.org/1999/xlink" width="539.28pt" height="318.24pt" viewBox="0 0 539.28 318.24" xmlns="http://www.w3.org/2000/svg" version="1.1">
 <metadata>
  <rdf:RDF xmlns:dc="http://purl.org/dc/elements/1.1/" xmlns:cc="http://creativecommons.org/ns#" xmlns:rdf="http://www.w3.org/1999/02/22-rdf-syntax-ns#">
   <cc:Work>
    <dc:type rdf:resource="http://purl.org/dc/dcmitype/StillImage"/>
    <dc:date>2024-10-22T16:45:40.894207</dc:date>
    <dc:format>image/svg+xml</dc:format>
    <dc:creator>
     <cc:Agent>
      <dc:title>Matplotlib v3.9.2, https://matplotlib.org/</dc:title>
     </cc:Agent>
    </dc:creator>
   </cc:Work>
  </rdf:RDF>
 </metadata>
 <defs>
  <style type="text/css">*{stroke-linejoin: round; stroke-linecap: butt}</style>
 </defs>
 <g id="figure_1">
  <g id="patch_1">
   <path d="M 0 318.24 
L 539.28 318.24 
L 539.28 0 
L 0 0 
z
" style="fill: #ffffff"/>
  </g>
  <g id="axes_1">
   <g id="patch_2">
    <path d="M 67.41 283.2336 
L 485.352 283.2336 
L 485.352 38.1888 
L 67.41 38.1888 
z
" style="fill: #ffffff"/>
   </g>
   <g id="matplotlib.axis_1">
    <g id="xtick_1">
     <g id="line2d_1">
      <defs>
       <path id="ma79ecdab8e" d="M 0 0 
L 0 3.5 
" style="stroke: #000000; stroke-width: 0.8"/>
      </defs>
      <g>
       <use xlink:href="#ma79ecdab8e" x="171.8955" y="283.2336" style="stroke: #000000; stroke-width: 0.8"/>
      </g>
     </g>
     <g id="text_1">
      <!-- kelapa(on x86 pc) -->
      <g transform="translate(127.142375 298.22735) scale(0.1 -0.1)">
       <defs>
        <path id="MicrosoftYaHei-Bold-6b" d="M 3856 0 
L 2631 0 
L 1481 1709 
L 1469 1709 
L 1469 0 
L 459 0 
L 459 5116 
L 1469 5116 
L 1469 1859 
L 1481 1859 
L 2559 3456 
L 3763 3456 
L 2481 1825 
L 3856 0 
z
" transform="scale(0.015625)"/>
        <path id="MicrosoftYaHei-Bold-65" d="M 3528 1444 
L 1253 1444 
Q 1306 641 2222 641 
Q 2794 641 3231 922 
L 3231 181 
Q 2759 -84 1994 -84 
Q 1169 -84 711 381 
Q 253 847 253 1678 
Q 253 2506 740 3023 
Q 1228 3541 1966 3541 
Q 2700 3541 3114 3095 
Q 3528 2650 3528 1872 
L 3528 1444 
z
M 2588 2075 
Q 2588 2850 1959 2850 
Q 1700 2850 1500 2637 
Q 1300 2425 1250 2075 
L 2588 2075 
z
" transform="scale(0.015625)"/>
        <path id="MicrosoftYaHei-Bold-6c" d="M 444 0 
L 444 5116 
L 1450 5116 
L 1450 0 
L 444 0 
z
" transform="scale(0.015625)"/>
        <path id="MicrosoftYaHei-Bold-61" d="M 544 3247 
Q 778 3378 1170 3459 
Q 1563 3541 1841 3541 
Q 3291 3541 3291 2088 
L 3291 0 
L 2331 0 
L 2331 503 
L 2319 503 
Q 1966 -84 1284 -84 
Q 794 -84 498 195 
Q 203 475 203 956 
Q 203 1950 1388 2113 
L 2338 2241 
Q 2338 2844 1709 2844 
Q 1091 2844 544 2469 
L 544 3247 
z
M 1684 1566 
Q 1138 1494 1138 1072 
Q 1138 878 1270 759 
Q 1403 641 1628 641 
Q 1938 641 2138 859 
Q 2338 1078 2338 1403 
L 2338 1650 
L 1684 1566 
z
" transform="scale(0.015625)"/>
        <path id="MicrosoftYaHei-Bold-70" d="M 1469 416 
L 1469 -1591 
L 459 -1591 
L 459 3456 
L 1469 3456 
L 1469 2928 
L 1481 2928 
Q 1878 3541 2603 3541 
Q 3263 3541 3634 3080 
Q 4006 2619 4006 1825 
Q 4006 959 3575 437 
Q 3144 -84 2444 -84 
Q 1809 -84 1481 416 
L 1469 416 
z
M 1453 1528 
Q 1453 1159 1653 925 
Q 1853 691 2172 691 
Q 2550 691 2761 984 
Q 2972 1278 2972 1816 
Q 2972 2766 2231 2766 
Q 1888 2766 1670 2503 
Q 1453 2241 1453 1828 
L 1453 1528 
z
" transform="scale(0.015625)"/>
        <path id="MicrosoftYaHei-Bold-28" d="M 1606 -1100 
Q 525 97 525 1853 
Q 525 3550 1606 4841 
L 2431 4841 
Q 1406 3497 1406 1853 
Q 1406 216 2438 -1100 
L 1606 -1100 
z
" transform="scale(0.015625)"/>
        <path id="MicrosoftYaHei-Bold-6f" d="M 253 1713 
Q 253 2566 764 3053 
Q 1275 3541 2138 3541 
Q 2972 3541 3462 3061 
Q 3953 2581 3953 1772 
Q 3953 922 3450 419 
Q 2947 -84 2088 -84 
Q 1244 -84 748 398 
Q 253 881 253 1713 
z
M 1275 1725 
Q 1275 691 2119 691 
Q 2928 691 2928 1753 
Q 2928 2766 2113 2766 
Q 1716 2766 1495 2494 
Q 1275 2222 1275 1725 
z
" transform="scale(0.015625)"/>
        <path id="MicrosoftYaHei-Bold-6e" d="M 3744 0 
L 2741 0 
L 2741 1928 
Q 2741 2766 2138 2766 
Q 1850 2766 1659 2542 
Q 1469 2319 1469 1972 
L 1469 0 
L 459 0 
L 459 3456 
L 1469 3456 
L 1469 2906 
L 1481 2906 
Q 1859 3541 2594 3541 
Q 3744 3541 3744 2116 
L 3744 0 
z
" transform="scale(0.015625)"/>
        <path id="MicrosoftYaHei-Bold-20" transform="scale(0.015625)"/>
        <path id="MicrosoftYaHei-Bold-78" d="M 3706 3456 
L 2563 1772 
L 3697 0 
L 2531 0 
L 2016 953 
Q 1909 1150 1869 1263 
L 1856 1263 
Q 1800 1113 1716 963 
L 1191 0 
L 31 0 
L 1200 1719 
L 100 3456 
L 1269 3456 
L 1781 2463 
Q 1856 2319 1922 2144 
L 1934 2144 
Q 1966 2250 2078 2466 
L 2606 3456 
L 3706 3456 
z
" transform="scale(0.015625)"/>
        <path id="MicrosoftYaHei-Bold-38" d="M 269 1303 
Q 269 1725 512 2053 
Q 756 2381 1219 2534 
Q 850 2719 648 3003 
Q 447 3288 447 3634 
Q 447 3997 645 4292 
Q 844 4588 1200 4755 
Q 1556 4922 1997 4922 
Q 2441 4922 2800 4758 
Q 3159 4594 3359 4298 
Q 3559 4003 3559 3647 
Q 3559 3309 3339 3018 
Q 3119 2728 2747 2559 
Q 3200 2403 3453 2076 
Q 3706 1750 3706 1313 
Q 3706 697 3228 309 
Q 2750 -78 1988 -78 
Q 1225 -78 747 309 
Q 269 697 269 1303 
z
M 1278 1394 
Q 1278 1056 1472 853 
Q 1666 650 1991 650 
Q 2303 650 2503 853 
Q 2703 1056 2703 1394 
Q 2703 1709 2500 1920 
Q 2297 2131 1991 2131 
Q 1675 2131 1476 1920 
Q 1278 1709 1278 1394 
z
M 1428 3531 
Q 1428 3266 1592 3077 
Q 1756 2888 2006 2888 
Q 2247 2888 2415 3072 
Q 2584 3256 2584 3531 
Q 2584 3806 2420 3997 
Q 2256 4188 2006 4188 
Q 1750 4188 1589 3997 
Q 1428 3806 1428 3531 
z
" transform="scale(0.015625)"/>
        <path id="MicrosoftYaHei-Bold-36" d="M 3378 3938 
Q 3009 4147 2575 4147 
Q 2016 4147 1680 3708 
Q 1344 3269 1344 2572 
L 1363 2572 
Q 1709 3103 2391 3103 
Q 3000 3103 3358 2686 
Q 3716 2269 3716 1600 
Q 3716 869 3250 392 
Q 2784 -84 2059 -84 
Q 1228 -84 786 516 
Q 344 1116 344 2159 
Q 344 3388 917 4155 
Q 1491 4922 2513 4922 
Q 3063 4922 3378 4791 
L 3378 3938 
z
M 1378 1591 
Q 1378 1216 1565 953 
Q 1753 691 2059 691 
Q 2369 691 2547 931 
Q 2725 1172 2725 1534 
Q 2725 2350 2053 2350 
Q 1750 2350 1564 2134 
Q 1378 1919 1378 1591 
z
" transform="scale(0.015625)"/>
        <path id="MicrosoftYaHei-Bold-63" d="M 3050 128 
Q 2688 -84 2019 -84 
Q 1228 -84 740 397 
Q 253 878 253 1644 
Q 253 2525 778 3033 
Q 1303 3541 2178 3541 
Q 2769 3541 3053 3378 
L 3053 2513 
Q 2706 2766 2297 2766 
Q 1834 2766 1554 2484 
Q 1275 2203 1275 1713 
Q 1275 1238 1540 964 
Q 1806 691 2263 691 
Q 2666 691 3050 947 
L 3050 128 
z
" transform="scale(0.015625)"/>
        <path id="MicrosoftYaHei-Bold-29" d="M 59 -1100 
Q 1097 216 1097 1853 
Q 1097 3484 59 4841 
L 888 4841 
Q 1978 3544 1978 1853 
Q 1978 113 881 -1100 
L 59 -1100 
z
" transform="scale(0.015625)"/>
       </defs>
       <use xlink:href="#MicrosoftYaHei-Bold-6b"/>
       <use xlink:href="#MicrosoftYaHei-Bold-65" x="58.119141"/>
       <use xlink:href="#MicrosoftYaHei-Bold-6c" x="116.322266"/>
       <use xlink:href="#MicrosoftYaHei-Bold-61" x="145.912109"/>
       <use xlink:href="#MicrosoftYaHei-Bold-70" x="203.675781"/>
       <use xlink:href="#MicrosoftYaHei-Bold-61" x="269.152344"/>
       <use xlink:href="#MicrosoftYaHei-Bold-28" x="326.916016"/>
       <use xlink:href="#MicrosoftYaHei-Bold-6f" x="365.880859"/>
       <use xlink:href="#MicrosoftYaHei-Bold-6e" x="431.603516"/>
       <use xlink:href="#MicrosoftYaHei-Bold-20" x="496.398438"/>
       <use xlink:href="#MicrosoftYaHei-Bold-78" x="526.183594"/>
       <use xlink:href="#MicrosoftYaHei-Bold-38" x="584.679688"/>
       <use xlink:href="#MicrosoftYaHei-Bold-36" x="646.349609"/>
       <use xlink:href="#MicrosoftYaHei-Bold-20" x="708.019531"/>
       <use xlink:href="#MicrosoftYaHei-Bold-70" x="737.804688"/>
       <use xlink:href="#MicrosoftYaHei-Bold-63" x="804.40625"/>
       <use xlink:href="#MicrosoftYaHei-Bold-29" x="856.066406"/>
      </g>
     </g>
    </g>
    <g id="xtick_2">
     <g id="line2d_2">
      <g>
       <use xlink:href="#ma79ecdab8e" x="380.8665" y="283.2336" style="stroke: #000000; stroke-width: 0.8"/>
      </g>
     </g>
     <g id="text_2">
      <!-- harmony(on x86 pc) -->
      <g transform="translate(329.906344 298.22735) scale(0.1 -0.1)">
       <defs>
        <path id="MicrosoftYaHei-Bold-68" d="M 3725 0 
L 2719 0 
L 2719 1969 
Q 2719 2766 2138 2766 
Q 1847 2766 1658 2544 
Q 1469 2322 1469 1969 
L 1469 0 
L 459 0 
L 459 5116 
L 1469 5116 
L 1469 2938 
L 1481 2938 
Q 1878 3541 2550 3541 
Q 3725 3541 3725 2122 
L 3725 0 
z
" transform="scale(0.015625)"/>
        <path id="MicrosoftYaHei-Bold-72" d="M 2663 2541 
Q 2478 2647 2216 2647 
Q 1872 2647 1670 2384 
Q 1469 2122 1469 1663 
L 1469 0 
L 459 0 
L 459 3456 
L 1469 3456 
L 1469 2806 
L 1481 2806 
Q 1731 3516 2391 3516 
Q 2569 3516 2663 3475 
L 2663 2541 
z
" transform="scale(0.015625)"/>
        <path id="MicrosoftYaHei-Bold-6d" d="M 5881 0 
L 4875 0 
L 4875 1972 
Q 4875 2766 4297 2766 
Q 4028 2766 3850 2525 
Q 3672 2284 3672 1938 
L 3672 0 
L 2666 0 
L 2666 1997 
Q 2666 2766 2094 2766 
Q 1809 2766 1639 2536 
Q 1469 2306 1469 1928 
L 1469 0 
L 459 0 
L 459 3456 
L 1469 3456 
L 1469 2916 
L 1481 2916 
Q 1663 3213 1963 3377 
Q 2263 3541 2594 3541 
Q 3322 3541 3591 2888 
Q 3991 3541 4753 3541 
Q 5881 3541 5881 2147 
L 5881 0 
z
" transform="scale(0.015625)"/>
        <path id="MicrosoftYaHei-Bold-79" d="M 3691 3456 
L 2266 -309 
Q 1769 -1622 778 -1622 
Q 388 -1622 172 -1541 
L 172 -731 
Q 375 -847 619 -847 
Q 1031 -847 1200 -447 
L 1391 6 
L -6 3456 
L 1113 3456 
L 1788 1291 
Q 1850 1094 1878 850 
L 1897 850 
Q 1919 1016 2000 1284 
L 2691 3456 
L 3691 3456 
z
" transform="scale(0.015625)"/>
       </defs>
       <use xlink:href="#MicrosoftYaHei-Bold-68"/>
       <use xlink:href="#MicrosoftYaHei-Bold-61" x="64.550781"/>
       <use xlink:href="#MicrosoftYaHei-Bold-72" x="122.314453"/>
       <use xlink:href="#MicrosoftYaHei-Bold-6d" x="164.947266"/>
       <use xlink:href="#MicrosoftYaHei-Bold-6f" x="263.140625"/>
       <use xlink:href="#MicrosoftYaHei-Bold-6e" x="328.863281"/>
       <use xlink:href="#MicrosoftYaHei-Bold-79" x="393.658203"/>
       <use xlink:href="#MicrosoftYaHei-Bold-28" x="451.080078"/>
       <use xlink:href="#MicrosoftYaHei-Bold-6f" x="490.044922"/>
       <use xlink:href="#MicrosoftYaHei-Bold-6e" x="555.767578"/>
       <use xlink:href="#MicrosoftYaHei-Bold-20" x="620.5625"/>
       <use xlink:href="#MicrosoftYaHei-Bold-78" x="650.347656"/>
       <use xlink:href="#MicrosoftYaHei-Bold-38" x="708.84375"/>
       <use xlink:href="#MicrosoftYaHei-Bold-36" x="770.513672"/>
       <use xlink:href="#MicrosoftYaHei-Bold-20" x="832.183594"/>
       <use xlink:href="#MicrosoftYaHei-Bold-70" x="861.96875"/>
       <use xlink:href="#MicrosoftYaHei-Bold-63" x="928.570312"/>
       <use xlink:href="#MicrosoftYaHei-Bold-29" x="980.230469"/>
      </g>
     </g>
    </g>
    <g id="text_3">
     <!-- 测试协议名称 -->
     <g transform="translate(246.381 312.755475) scale(0.1 -0.1)">
      <defs>
       <path id="MicrosoftYaHei-6d4b" d="M 875 1753 
Q 1175 1597 1369 1522 
Q 950 -41 763 -784 
L 250 -547 
Q 619 497 875 1753 
z
M 638 5166 
Q 1019 4847 1588 4303 
Q 1381 4103 1213 3928 
Q 756 4434 313 4853 
L 638 5166 
z
M 356 3559 
Q 881 3134 1350 2716 
Q 1188 2547 988 2322 
Q 425 2878 50 3216 
L 356 3559 
z
M 5575 5284 
L 6031 5284 
L 6031 -34 
Q 6031 -753 5338 -753 
Q 5038 -753 4625 -741 
Q 4600 -509 4538 -228 
Q 4938 -272 5219 -272 
Q 5575 -272 5575 84 
L 5575 5284 
z
M 5038 634 
L 4600 634 
L 4600 4778 
L 5038 4778 
L 5038 634 
z
M 1706 4941 
L 4063 4941 
L 4063 991 
L 3613 991 
L 3613 4503 
L 2156 4503 
L 2156 991 
L 1706 991 
L 1706 4941 
z
M 2681 3966 
L 3138 3966 
L 3138 2416 
Q 3138 1466 2963 891 
Q 3775 266 4375 -234 
L 4038 -616 
Q 3538 -141 2800 472 
Q 2413 -297 1406 -884 
Q 1269 -684 1100 -484 
Q 2031 53 2375 709 
Q 2681 1278 2681 2403 
L 2681 3966 
z
" transform="scale(0.015625)"/>
       <path id="MicrosoftYaHei-8bd5" d="M 1913 4078 
L 4194 4078 
Q 4188 4656 4188 5334 
L 4681 5334 
Q 4669 4591 4675 4078 
L 6219 4078 
L 6219 3622 
L 4684 3622 
Q 4747 978 5275 22 
Q 5469 -303 5600 -303 
Q 5706 -303 5750 -53 
Q 5813 328 5844 941 
Q 6113 834 6313 778 
Q 6231 72 6156 -297 
Q 6056 -822 5631 -822 
Q 5281 -822 4938 -341 
Q 4300 584 4206 3622 
L 1913 3622 
L 1913 4078 
z
M 1800 66 
Q 2272 128 2788 209 
L 2788 2147 
L 1894 2147 
L 1894 2591 
L 4056 2591 
L 4056 2147 
L 3250 2147 
L 3250 281 
Q 3741 363 4269 459 
Q 4256 209 4256 -28 
Q 2888 -247 1925 -422 
L 1800 66 
z
M 2038 1334 
Q 2069 984 2106 728 
Q 1688 328 1269 -103 
Q 1075 -303 944 -484 
L 594 -84 
Q 813 159 813 516 
L 813 2816 
L 88 2816 
L 88 3259 
L 1288 3259 
L 1288 572 
Q 1625 897 2038 1334 
z
M 700 5172 
Q 1263 4622 1688 4134 
L 1275 3778 
Q 881 4297 344 4853 
L 700 5172 
z
M 4919 4897 
L 5206 5197 
Q 5706 4828 6000 4547 
L 5656 4197 
Q 5313 4566 4919 4897 
z
" transform="scale(0.015625)"/>
       <path id="MicrosoftYaHei-534f" d="M 2206 4022 
L 3291 4022 
Q 3313 4659 3313 5278 
L 3800 5278 
Q 3794 4697 3772 4022 
L 5294 4022 
Q 5231 1716 5150 172 
Q 5113 -691 4281 -691 
Q 4075 -691 3594 -678 
Q 3550 -391 3488 -134 
Q 3894 -191 4200 -191 
Q 4650 -197 4675 291 
Q 4750 1784 4794 3534 
L 3756 3534 
Q 3722 2138 3538 1322 
Q 3219 84 2225 -778 
Q 2069 -603 1863 -409 
Q 2756 378 3056 1453 
Q 3250 2184 3278 3534 
L 2206 3534 
L 2206 4022 
z
M 94 3484 
L 775 3484 
L 775 5272 
L 1256 5272 
L 1256 3484 
L 1863 3484 
L 1863 3028 
L 1256 3028 
L 1256 -803 
L 775 -803 
L 775 3028 
L 94 3028 
L 94 3484 
z
M 2394 2916 
L 2813 2759 
Q 2500 1934 2088 997 
Q 1894 1103 1669 1191 
Q 2075 1978 2394 2916 
z
M 5331 2791 
L 5750 2922 
Q 6063 2047 6319 1278 
L 5863 1122 
Q 5600 2053 5331 2791 
z
" transform="scale(0.015625)"/>
       <path id="MicrosoftYaHei-8bae" d="M 5813 4841 
Q 5447 2288 4309 909 
Q 5119 156 6288 -272 
Q 6056 -547 5888 -791 
Q 4719 -234 3941 516 
Q 3100 -300 1969 -847 
Q 1831 -647 1613 -372 
Q 2772 131 3575 909 
Q 2384 2338 2119 4841 
L 2606 4916 
Q 2809 2638 3938 1300 
Q 5041 2647 5313 4928 
L 5813 4841 
z
M 2181 1222 
Q 2200 953 2250 678 
Q 1819 359 1313 -47 
Q 1156 -178 1025 -341 
L 663 47 
Q 856 253 856 653 
L 856 2772 
L 94 2772 
L 94 3234 
L 1331 3234 
L 1331 553 
Q 1763 884 2181 1222 
z
M 3250 5103 
L 3650 5316 
Q 4050 4703 4425 4016 
L 3981 3759 
Q 3569 4584 3250 5103 
z
M 788 5172 
Q 1238 4722 1700 4191 
L 1281 3834 
Q 813 4434 425 4866 
L 788 5172 
z
" transform="scale(0.015625)"/>
       <path id="MicrosoftYaHei-540d" d="M 2406 5328 
L 2894 5128 
Q 2688 4853 2475 4603 
L 5669 4603 
L 5669 4159 
Q 4506 2828 2600 1978 
L 5656 1978 
L 5656 -866 
L 5156 -866 
L 5156 -459 
L 1863 -459 
L 1863 -866 
L 1363 -866 
L 1363 1478 
Q 875 1297 350 1122 
Q 213 1359 63 1584 
Q 1463 1966 2588 2516 
Q 2200 2909 1750 3322 
L 2125 3647 
Q 2650 3178 3088 2778 
Q 4188 3384 5000 4172 
L 2094 4172 
Q 1388 3403 481 2753 
Q 306 2984 156 3159 
Q 1394 3966 2406 5328 
z
M 5156 1528 
L 1863 1528 
L 1863 -22 
L 5156 -22 
L 5156 1528 
z
" transform="scale(0.015625)"/>
       <path id="MicrosoftYaHei-79f0" d="M 81 847 
Q 769 1847 1138 3003 
L 113 3003 
L 113 3428 
L 1150 3428 
L 1150 4372 
Q 725 4322 263 4278 
Q 219 4491 150 4728 
Q 1644 4872 2525 5028 
L 2644 4572 
Q 2156 4497 1594 4428 
L 1594 3428 
L 2406 3428 
L 2406 3278 
Q 2975 4122 3456 5341 
L 3931 5184 
Q 3744 4753 3563 4378 
L 6131 4378 
L 6131 3934 
Q 6000 3603 5644 2884 
Q 5456 2984 5181 3072 
Q 5444 3622 5569 3934 
L 3338 3934 
Q 3006 3291 2694 2841 
Q 2531 3016 2406 3134 
L 2406 3003 
L 1594 3003 
L 1594 2341 
L 1813 2541 
Q 2294 2091 2569 1766 
L 2244 1453 
Q 1906 1859 1594 2178 
L 1594 -853 
L 1150 -853 
L 1150 1897 
Q 794 1003 325 341 
Q 219 603 81 847 
z
M 4006 3628 
L 4481 3628 
L 4481 -34 
Q 4481 -753 3769 -753 
Q 3481 -753 3069 -734 
Q 3038 -503 2994 -228 
Q 3331 -278 3719 -278 
Q 4006 -278 4006 41 
L 4006 3628 
z
M 4806 2434 
L 5238 2628 
Q 5744 1753 6325 416 
L 5838 178 
Q 5325 1416 4806 2434 
z
M 3100 2616 
L 3569 2447 
Q 3150 1172 2656 147 
Q 2456 247 2188 347 
Q 2669 1334 3100 2616 
z
" transform="scale(0.015625)"/>
      </defs>
      <use xlink:href="#MicrosoftYaHei-6d4b"/>
      <use xlink:href="#MicrosoftYaHei-8bd5" x="100"/>
      <use xlink:href="#MicrosoftYaHei-534f" x="200"/>
      <use xlink:href="#MicrosoftYaHei-8bae" x="300"/>
      <use xlink:href="#MicrosoftYaHei-540d" x="400"/>
      <use xlink:href="#MicrosoftYaHei-79f0" x="500"/>
     </g>
    </g>
   </g>
   <g id="matplotlib.axis_2">
    <g id="ytick_1">
     <g id="line2d_3">
      <defs>
       <path id="m3ed145eb1f" d="M 0 0 
L -3.5 0 
" style="stroke: #000000; stroke-width: 0.8"/>
      </defs>
      <g>
       <use xlink:href="#m3ed145eb1f" x="67.41" y="261.38069" style="stroke: #000000; stroke-width: 0.8"/>
      </g>
     </g>
     <g id="text_4">
      <!-- 0.02 -->
      <g transform="translate(39.052187 265.377565) scale(0.1 -0.1)">
       <defs>
        <path id="MicrosoftYaHei-Bold-30" d="M 244 2341 
Q 244 3597 706 4259 
Q 1169 4922 2044 4922 
Q 3713 4922 3713 2453 
Q 3713 1238 3259 577 
Q 2806 -84 1950 -84 
Q 244 -84 244 2341 
z
M 1266 2366 
Q 1266 691 1981 691 
Q 2684 691 2684 2416 
Q 2684 4147 2000 4147 
Q 1266 4147 1266 2366 
z
" transform="scale(0.015625)"/>
        <path id="MicrosoftYaHei-Bold-2e" d="M 313 453 
Q 313 688 491 838 
Q 669 988 916 988 
Q 1166 988 1337 834 
Q 1509 681 1509 453 
Q 1509 213 1337 64 
Q 1166 -84 903 -84 
Q 659 -84 486 69 
Q 313 222 313 453 
z
" transform="scale(0.015625)"/>
        <path id="MicrosoftYaHei-Bold-32" d="M 1500 841 
L 3553 841 
L 3553 0 
L 334 0 
L 334 359 
Q 334 738 473 1050 
Q 613 1363 856 1633 
Q 1100 1903 1613 2266 
Q 2081 2616 2268 2886 
Q 2456 3156 2456 3459 
Q 2456 4113 1744 4113 
Q 1119 4113 550 3613 
L 550 4513 
Q 1184 4922 1975 4922 
Q 2700 4922 3122 4551 
Q 3544 4181 3544 3531 
Q 3544 3169 3422 2876 
Q 3300 2584 3069 2328 
Q 2838 2072 2328 1713 
Q 1838 1363 1669 1172 
Q 1500 981 1500 841 
z
" transform="scale(0.015625)"/>
       </defs>
       <use xlink:href="#MicrosoftYaHei-Bold-30"/>
       <use xlink:href="#MicrosoftYaHei-Bold-2e" x="61.669922"/>
       <use xlink:href="#MicrosoftYaHei-Bold-30" x="90.234375"/>
       <use xlink:href="#MicrosoftYaHei-Bold-32" x="151.904297"/>
      </g>
     </g>
    </g>
    <g id="ytick_2">
     <g id="line2d_4">
      <g>
       <use xlink:href="#m3ed145eb1f" x="67.41" y="207.823923" style="stroke: #000000; stroke-width: 0.8"/>
      </g>
     </g>
     <g id="text_5">
      <!-- 0.03 -->
      <g transform="translate(39.052187 211.820798) scale(0.1 -0.1)">
       <defs>
        <path id="MicrosoftYaHei-Bold-33" d="M 494 1053 
Q 978 691 1625 691 
Q 2034 691 2275 872 
Q 2516 1053 2516 1388 
Q 2516 1731 2230 1912 
Q 1944 2094 1428 2094 
L 997 2094 
L 997 2872 
L 1394 2872 
Q 2369 2872 2369 3528 
Q 2369 4147 1622 4147 
Q 1134 4147 675 3828 
L 675 4663 
Q 1175 4922 1853 4922 
Q 2541 4922 2969 4605 
Q 3397 4288 3397 3725 
Q 3397 2775 2434 2531 
L 2434 2516 
Q 2941 2459 3244 2145 
Q 3547 1831 3547 1381 
Q 3547 691 3042 303 
Q 2538 -84 1697 -84 
Q 950 -84 494 163 
L 494 1053 
z
" transform="scale(0.015625)"/>
       </defs>
       <use xlink:href="#MicrosoftYaHei-Bold-30"/>
       <use xlink:href="#MicrosoftYaHei-Bold-2e" x="61.669922"/>
       <use xlink:href="#MicrosoftYaHei-Bold-30" x="90.234375"/>
       <use xlink:href="#MicrosoftYaHei-Bold-33" x="151.904297"/>
      </g>
     </g>
    </g>
    <g id="ytick_3">
     <g id="line2d_5">
      <g>
       <use xlink:href="#m3ed145eb1f" x="67.41" y="154.267156" style="stroke: #000000; stroke-width: 0.8"/>
      </g>
     </g>
     <g id="text_6">
      <!-- 0.04 -->
      <g transform="translate(39.052187 158.264031) scale(0.1 -0.1)">
       <defs>
        <path id="MicrosoftYaHei-Bold-34" d="M 3184 4841 
L 3184 1766 
L 3869 1766 
L 3869 1031 
L 3184 1031 
L 3184 0 
L 2266 0 
L 2266 1031 
L 103 1031 
L 103 1772 
Q 775 2522 1362 3359 
Q 1950 4197 2250 4841 
L 3184 4841 
z
M 997 1766 
L 2266 1766 
L 2266 3541 
Q 2116 3259 1836 2859 
Q 1556 2459 997 1766 
z
" transform="scale(0.015625)"/>
       </defs>
       <use xlink:href="#MicrosoftYaHei-Bold-30"/>
       <use xlink:href="#MicrosoftYaHei-Bold-2e" x="61.669922"/>
       <use xlink:href="#MicrosoftYaHei-Bold-30" x="90.234375"/>
       <use xlink:href="#MicrosoftYaHei-Bold-34" x="151.904297"/>
      </g>
     </g>
    </g>
    <g id="ytick_4">
     <g id="line2d_6">
      <g>
       <use xlink:href="#m3ed145eb1f" x="67.41" y="100.710389" style="stroke: #000000; stroke-width: 0.8"/>
      </g>
     </g>
     <g id="text_7">
      <!-- 0.05 -->
      <g transform="translate(39.052187 104.707264) scale(0.1 -0.1)">
       <defs>
        <path id="MicrosoftYaHei-Bold-35" d="M 541 125 
L 541 997 
Q 1044 691 1613 691 
Q 2041 691 2283 902 
Q 2525 1113 2525 1472 
Q 2525 2225 1494 2225 
Q 1113 2225 616 2169 
L 797 4841 
L 3359 4841 
L 3359 4009 
L 1613 4009 
L 1544 2991 
Q 1803 3013 2022 3013 
Q 2731 3013 3142 2625 
Q 3553 2238 3553 1575 
Q 3553 844 3056 380 
Q 2559 -84 1706 -84 
Q 1016 -84 541 125 
z
" transform="scale(0.015625)"/>
       </defs>
       <use xlink:href="#MicrosoftYaHei-Bold-30"/>
       <use xlink:href="#MicrosoftYaHei-Bold-2e" x="61.669922"/>
       <use xlink:href="#MicrosoftYaHei-Bold-30" x="90.234375"/>
       <use xlink:href="#MicrosoftYaHei-Bold-35" x="151.904297"/>
      </g>
     </g>
    </g>
    <g id="ytick_5">
     <g id="line2d_7">
      <g>
       <use xlink:href="#m3ed145eb1f" x="67.41" y="47.153622" style="stroke: #000000; stroke-width: 0.8"/>
      </g>
     </g>
     <g id="text_8">
      <!-- 0.06 -->
      <g transform="translate(39.052187 51.150497) scale(0.1 -0.1)">
       <use xlink:href="#MicrosoftYaHei-Bold-30"/>
       <use xlink:href="#MicrosoftYaHei-Bold-2e" x="61.669922"/>
       <use xlink:href="#MicrosoftYaHei-Bold-30" x="90.234375"/>
       <use xlink:href="#MicrosoftYaHei-Bold-36" x="151.904297"/>
      </g>
     </g>
    </g>
    <g id="text_9">
     <!-- 时间开销(s) -->
     <g transform="translate(32.56625 186.366669) rotate(-90) scale(0.1 -0.1)">
      <defs>
       <path id="MicrosoftYaHei-65f6" d="M 344 4728 
L 2500 4728 
L 2500 -366 
L 2006 -366 
L 2006 153 
L 838 153 
L 838 -441 
L 344 -441 
L 344 4728 
z
M 2706 3941 
L 4925 3941 
L 4925 5322 
L 5425 5322 
L 5425 3941 
L 6313 3941 
L 6313 3478 
L 5425 3478 
L 5425 116 
Q 5425 -722 4625 -722 
Q 4263 -722 3563 -703 
Q 3531 -478 3463 -178 
Q 4119 -228 4488 -228 
Q 4925 -228 4925 216 
L 4925 3478 
L 2706 3478 
L 2706 3941 
z
M 838 616 
L 2006 616 
L 2006 2234 
L 838 2234 
L 838 616 
z
M 2006 4266 
L 838 4266 
L 838 2684 
L 2006 2684 
L 2006 4266 
z
M 3406 2878 
Q 3906 1966 4163 1422 
Q 4000 1347 3663 1172 
Q 3419 1766 2963 2653 
L 3406 2878 
z
" transform="scale(0.015625)"/>
       <path id="MicrosoftYaHei-95f4" d="M 1863 3647 
L 4513 3647 
L 4513 553 
L 2313 553 
L 2313 166 
L 1863 166 
L 1863 3647 
z
M 2388 4453 
L 2388 4922 
L 6013 4922 
L 6013 -28 
Q 6013 -816 5119 -816 
Q 4756 -816 4169 -803 
Q 4144 -616 4069 -297 
Q 4588 -334 5056 -334 
Q 5525 -334 5525 122 
L 5525 4453 
L 2388 4453 
z
M 419 4084 
L 906 4084 
L 906 -816 
L 419 -816 
L 419 4084 
z
M 2313 997 
L 4063 997 
L 4063 1884 
L 2313 1884 
L 2313 997 
z
M 4063 3203 
L 2313 3203 
L 2313 2328 
L 4063 2328 
L 4063 3203 
z
M 744 5003 
L 1100 5322 
Q 1575 4872 1981 4447 
L 1575 4091 
Q 1194 4541 744 5003 
z
" transform="scale(0.015625)"/>
       <path id="MicrosoftYaHei-5f00" d="M 125 2553 
L 1756 2553 
L 1756 4372 
L 400 4372 
L 400 4866 
L 6006 4866 
L 6006 4372 
L 4731 4372 
L 4731 2553 
L 6275 2553 
L 6275 2059 
L 4731 2059 
L 4731 -791 
L 4219 -791 
L 4219 2059 
L 2266 2059 
Q 2244 916 1938 359 
Q 1631 -253 531 -872 
Q 369 -647 175 -434 
Q 1131 53 1450 584 
Q 1734 1013 1753 2059 
L 125 2059 
L 125 2553 
z
M 2269 2553 
L 4219 2553 
L 4219 4372 
L 2269 4372 
L 2269 2553 
z
" transform="scale(0.015625)"/>
       <path id="MicrosoftYaHei-9500" d="M 2981 -841 
L 2525 -841 
L 2525 3534 
L 3956 3534 
L 3956 5309 
L 4438 5309 
L 4438 3534 
L 5931 3534 
L 5931 -91 
Q 5931 -816 5250 -816 
Q 4900 -816 4256 -797 
Q 4219 -566 4169 -284 
Q 4756 -322 5063 -322 
Q 5475 -322 5475 28 
L 5475 622 
L 2981 622 
L 2981 -841 
z
M 2275 541 
Q 2275 266 2306 22 
Q 1906 -172 1375 -491 
Q 1263 -553 1113 -703 
L 781 -272 
Q 981 -91 981 197 
L 981 1559 
L 144 1559 
L 144 1991 
L 981 1991 
L 981 2834 
L 575 2834 
L 575 3266 
L 2169 3266 
L 2169 2834 
L 1438 2834 
L 1438 1991 
L 2313 1991 
L 2313 1559 
L 1438 1559 
L 1438 72 
Q 1894 316 2275 541 
z
M 2981 1072 
L 5475 1072 
L 5475 1847 
L 2981 1847 
L 2981 1072 
z
M 5475 3066 
L 2981 3066 
L 2981 2297 
L 5475 2297 
L 5475 3066 
z
M 88 3384 
Q 694 4253 1056 5316 
L 1525 5159 
Q 1356 4741 1163 4353 
L 2319 4353 
L 2319 3922 
L 944 3922 
Q 669 3416 350 2959 
Q 231 3184 88 3384 
z
M 4825 4041 
Q 5269 4522 5688 5103 
L 6100 4791 
Q 5719 4328 5163 3747 
L 4825 4041 
z
M 2319 4859 
L 2663 5122 
Q 3113 4678 3550 4122 
L 3156 3803 
Q 2725 4409 2319 4859 
z
" transform="scale(0.015625)"/>
       <path id="MicrosoftYaHei-28" d="M 1531 -1100 
Q 478 100 478 1847 
Q 478 3594 1531 4841 
L 2072 4841 
Q 1016 3544 1016 1853 
Q 1016 166 2066 -1100 
L 1531 -1100 
z
" transform="scale(0.015625)"/>
       <path id="MicrosoftYaHei-73" d="M 353 747 
Q 816 413 1350 413 
Q 2066 413 2066 881 
Q 2066 1081 1909 1211 
Q 1753 1341 1275 1519 
Q 700 1750 528 1976 
Q 356 2203 356 2525 
Q 356 2984 745 3261 
Q 1134 3538 1703 3538 
Q 2144 3538 2522 3384 
L 2522 2794 
Q 2134 3044 1644 3044 
Q 1350 3044 1165 2916 
Q 981 2788 981 2578 
Q 981 2372 1114 2256 
Q 1247 2141 1703 1959 
Q 2281 1744 2484 1512 
Q 2688 1281 2688 941 
Q 2688 466 2298 192 
Q 1909 -81 1291 -81 
Q 753 -81 353 122 
L 353 747 
z
" transform="scale(0.015625)"/>
       <path id="MicrosoftYaHei-29" d="M 78 -1100 
Q 1131 163 1131 1853 
Q 1131 3547 72 4841 
L 616 4841 
Q 1672 3603 1672 1847 
Q 1672 91 616 -1100 
L 78 -1100 
z
" transform="scale(0.015625)"/>
      </defs>
      <use xlink:href="#MicrosoftYaHei-65f6"/>
      <use xlink:href="#MicrosoftYaHei-95f4" x="100"/>
      <use xlink:href="#MicrosoftYaHei-5f00" x="200"/>
      <use xlink:href="#MicrosoftYaHei-9500" x="300"/>
      <use xlink:href="#MicrosoftYaHei-28" x="400"/>
      <use xlink:href="#MicrosoftYaHei-73" x="433.398438"/>
      <use xlink:href="#MicrosoftYaHei-29" x="479.6875"/>
     </g>
    </g>
   </g>
   <g id="patch_3">
    <path d="M 156.222675 266.738635 
L 187.568325 266.738635 
L 187.568325 266.736181 
L 179.731913 266.733527 
L 187.568325 266.730873 
L 187.568325 266.72012 
L 156.222675 266.72012 
L 156.222675 266.730873 
L 164.059088 266.733527 
L 156.222675 266.736181 
L 156.222675 266.738635 
z
" clip-path="url(#pb050b09f79)" style="fill: #add8e6; stroke: #000000; stroke-linejoin: miter"/>
   </g>
   <g id="line2d_8">
    <path d="M 171.8955 266.738635 
L 171.8955 266.74885 
" clip-path="url(#pb050b09f79)" style="fill: none; stroke: #0000ff; stroke-linecap: square"/>
   </g>
   <g id="line2d_9">
    <path d="M 171.8955 266.72012 
L 171.8955 266.709266 
" clip-path="url(#pb050b09f79)" style="fill: none; stroke: #0000ff; stroke-linecap: square"/>
   </g>
   <g id="line2d_10">
    <path d="M 164.059088 266.74885 
L 179.731913 266.74885 
" clip-path="url(#pb050b09f79)" style="fill: none; stroke: #000000; stroke-linecap: square"/>
   </g>
   <g id="line2d_11">
    <path d="M 164.059088 266.709266 
L 179.731913 266.709266 
" clip-path="url(#pb050b09f79)" style="fill: none; stroke: #000000; stroke-linecap: square"/>
   </g>
   <g id="line2d_12">
    <defs>
     <path id="mb00aeda02f" d="M 0 3 
C 0.795609 3 1.55874 2.683901 2.12132 2.12132 
C 2.683901 1.55874 3 0.795609 3 0 
C 3 -0.795609 2.683901 -1.55874 2.12132 -2.12132 
C 1.55874 -2.683901 0.795609 -3 0 -3 
C -0.795609 -3 -1.55874 -2.683901 -2.12132 -2.12132 
C -2.683901 -1.55874 -3 -0.795609 -3 0 
C -3 0.795609 -2.683901 1.55874 -2.12132 2.12132 
C -1.55874 2.683901 -0.795609 3 0 3 
z
" style="stroke: #000000"/>
    </defs>
    <g clip-path="url(#pb050b09f79)">
     <use xlink:href="#mb00aeda02f" x="171.8955" y="267.217469" style="fill: #ff0000; stroke: #000000"/>
     <use xlink:href="#mb00aeda02f" x="171.8955" y="268.656528" style="fill: #ff0000; stroke: #000000"/>
     <use xlink:href="#mb00aeda02f" x="171.8955" y="271.574228" style="fill: #ff0000; stroke: #000000"/>
     <use xlink:href="#mb00aeda02f" x="171.8955" y="269.111101" style="fill: #ff0000; stroke: #000000"/>
     <use xlink:href="#mb00aeda02f" x="171.8955" y="272.060724" style="fill: #ff0000; stroke: #000000"/>
     <use xlink:href="#mb00aeda02f" x="171.8955" y="269.077902" style="fill: #ff0000; stroke: #000000"/>
     <use xlink:href="#mb00aeda02f" x="171.8955" y="269.302635" style="fill: #ff0000; stroke: #000000"/>
     <use xlink:href="#mb00aeda02f" x="171.8955" y="269.097056" style="fill: #ff0000; stroke: #000000"/>
     <use xlink:href="#mb00aeda02f" x="171.8955" y="270.834907" style="fill: #ff0000; stroke: #000000"/>
     <use xlink:href="#mb00aeda02f" x="171.8955" y="267.991266" style="fill: #ff0000; stroke: #000000"/>
     <use xlink:href="#mb00aeda02f" x="171.8955" y="272.090092" style="fill: #ff0000; stroke: #000000"/>
     <use xlink:href="#mb00aeda02f" x="171.8955" y="272.091369" style="fill: #ff0000; stroke: #000000"/>
     <use xlink:href="#mb00aeda02f" x="171.8955" y="269.172392" style="fill: #ff0000; stroke: #000000"/>
     <use xlink:href="#mb00aeda02f" x="171.8955" y="272.0952" style="fill: #ff0000; stroke: #000000"/>
     <use xlink:href="#mb00aeda02f" x="171.8955" y="269.1775" style="fill: #ff0000; stroke: #000000"/>
     <use xlink:href="#mb00aeda02f" x="171.8955" y="269.113655" style="fill: #ff0000; stroke: #000000"/>
     <use xlink:href="#mb00aeda02f" x="171.8955" y="269.284759" style="fill: #ff0000; stroke: #000000"/>
     <use xlink:href="#mb00aeda02f" x="171.8955" y="263.62557" style="fill: #ff0000; stroke: #000000"/>
     <use xlink:href="#mb00aeda02f" x="171.8955" y="256.020396" style="fill: #ff0000; stroke: #000000"/>
     <use xlink:href="#mb00aeda02f" x="171.8955" y="256.010181" style="fill: #ff0000; stroke: #000000"/>
     <use xlink:href="#mb00aeda02f" x="171.8955" y="261.376962" style="fill: #ff0000; stroke: #000000"/>
     <use xlink:href="#mb00aeda02f" x="171.8955" y="266.612222" style="fill: #ff0000; stroke: #000000"/>
     <use xlink:href="#mb00aeda02f" x="171.8955" y="265.221686" style="fill: #ff0000; stroke: #000000"/>
     <use xlink:href="#mb00aeda02f" x="171.8955" y="265.508987" style="fill: #ff0000; stroke: #000000"/>
     <use xlink:href="#mb00aeda02f" x="171.8955" y="261.379515" style="fill: #ff0000; stroke: #000000"/>
     <use xlink:href="#mb00aeda02f" x="171.8955" y="261.380792" style="fill: #ff0000; stroke: #000000"/>
     <use xlink:href="#mb00aeda02f" x="171.8955" y="261.378238" style="fill: #ff0000; stroke: #000000"/>
     <use xlink:href="#mb00aeda02f" x="171.8955" y="49.3272" style="fill: #ff0000; stroke: #000000"/>
     <use xlink:href="#mb00aeda02f" x="171.8955" y="261.380792" style="fill: #ff0000; stroke: #000000"/>
     <use xlink:href="#mb00aeda02f" x="171.8955" y="261.379515" style="fill: #ff0000; stroke: #000000"/>
     <use xlink:href="#mb00aeda02f" x="171.8955" y="262.524888" style="fill: #ff0000; stroke: #000000"/>
     <use xlink:href="#mb00aeda02f" x="171.8955" y="256.003797" style="fill: #ff0000; stroke: #000000"/>
     <use xlink:href="#mb00aeda02f" x="171.8955" y="250.668938" style="fill: #ff0000; stroke: #000000"/>
     <use xlink:href="#mb00aeda02f" x="171.8955" y="218.529546" style="fill: #ff0000; stroke: #000000"/>
     <use xlink:href="#mb00aeda02f" x="171.8955" y="234.605627" style="fill: #ff0000; stroke: #000000"/>
     <use xlink:href="#mb00aeda02f" x="171.8955" y="250.668938" style="fill: #ff0000; stroke: #000000"/>
     <use xlink:href="#mb00aeda02f" x="171.8955" y="250.663831" style="fill: #ff0000; stroke: #000000"/>
     <use xlink:href="#mb00aeda02f" x="171.8955" y="223.891219" style="fill: #ff0000; stroke: #000000"/>
     <use xlink:href="#mb00aeda02f" x="171.8955" y="234.600519" style="fill: #ff0000; stroke: #000000"/>
     <use xlink:href="#mb00aeda02f" x="171.8955" y="253.264861" style="fill: #ff0000; stroke: #000000"/>
     <use xlink:href="#mb00aeda02f" x="171.8955" y="263.975438" style="fill: #ff0000; stroke: #000000"/>
     <use xlink:href="#mb00aeda02f" x="171.8955" y="259.464176" style="fill: #ff0000; stroke: #000000"/>
     <use xlink:href="#mb00aeda02f" x="171.8955" y="261.356531" style="fill: #ff0000; stroke: #000000"/>
     <use xlink:href="#mb00aeda02f" x="171.8955" y="261.380792" style="fill: #ff0000; stroke: #000000"/>
    </g>
   </g>
   <g id="patch_4">
    <path d="M 365.193675 132.843972 
L 396.539325 132.843972 
L 396.539325 130.601996 
L 388.702913 129.369227 
L 396.539325 128.136458 
L 396.539325 124.242502 
L 365.193675 124.242502 
L 365.193675 128.136458 
L 373.030088 129.369227 
L 365.193675 130.601996 
L 365.193675 132.843972 
z
" clip-path="url(#pb050b09f79)" style="fill: #add8e6; stroke: #000000; stroke-linejoin: miter"/>
   </g>
   <g id="line2d_13">
    <path d="M 380.8665 132.843972 
L 380.8665 138.241078 
" clip-path="url(#pb050b09f79)" style="fill: none; stroke: #0000ff; stroke-linecap: square"/>
   </g>
   <g id="line2d_14">
    <path d="M 380.8665 124.242502 
L 380.8665 111.421221 
" clip-path="url(#pb050b09f79)" style="fill: none; stroke: #0000ff; stroke-linecap: square"/>
   </g>
   <g id="line2d_15">
    <path d="M 373.030088 138.241078 
L 388.702913 138.241078 
" clip-path="url(#pb050b09f79)" style="fill: none; stroke: #000000; stroke-linecap: square"/>
   </g>
   <g id="line2d_16">
    <path d="M 373.030088 111.421221 
L 388.702913 111.421221 
" clip-path="url(#pb050b09f79)" style="fill: none; stroke: #000000; stroke-linecap: square"/>
   </g>
   <g id="line2d_17">
    <g clip-path="url(#pb050b09f79)">
     <use xlink:href="#mb00aeda02f" x="380.8665" y="95.364294" style="fill: #ff0000; stroke: #000000"/>
     <use xlink:href="#mb00aeda02f" x="380.8665" y="106.065933" style="fill: #ff0000; stroke: #000000"/>
     <use xlink:href="#mb00aeda02f" x="380.8665" y="107.170445" style="fill: #ff0000; stroke: #000000"/>
     <use xlink:href="#mb00aeda02f" x="380.8665" y="84.649886" style="fill: #ff0000; stroke: #000000"/>
     <use xlink:href="#mb00aeda02f" x="380.8665" y="109.389685" style="fill: #ff0000; stroke: #000000"/>
     <use xlink:href="#mb00aeda02f" x="380.8665" y="94.553467" style="fill: #ff0000; stroke: #000000"/>
    </g>
   </g>
   <g id="line2d_18">
    <path d="M 164.059088 266.733527 
L 179.731913 266.733527 
" clip-path="url(#pb050b09f79)" style="fill: none; stroke: #ff7f0e"/>
   </g>
   <g id="line2d_19">
    <defs>
     <path id="mb8cffdfd98" d="M 0 -3 
L -3 3 
L 3 3 
z
" style="stroke: #2ca02c; stroke-linejoin: miter"/>
    </defs>
    <g clip-path="url(#pb050b09f79)">
     <use xlink:href="#mb8cffdfd98" x="171.8955" y="262.765849" style="fill: #2ca02c; stroke: #2ca02c; stroke-linejoin: miter"/>
    </g>
   </g>
   <g id="line2d_20">
    <path d="M 373.030088 129.369227 
L 388.702913 129.369227 
" clip-path="url(#pb050b09f79)" style="fill: none; stroke: #ff7f0e"/>
   </g>
   <g id="line2d_21">
    <g clip-path="url(#pb050b09f79)">
     <use xlink:href="#mb8cffdfd98" x="380.8665" y="127.733293" style="fill: #2ca02c; stroke: #2ca02c; stroke-linejoin: miter"/>
    </g>
   </g>
   <g id="patch_5">
    <path d="M 67.41 283.2336 
L 67.41 38.1888 
" style="fill: none; stroke: #000000; stroke-width: 0.8; stroke-linejoin: miter; stroke-linecap: square"/>
   </g>
   <g id="patch_6">
    <path d="M 485.352 283.2336 
L 485.352 38.1888 
" style="fill: none; stroke: #000000; stroke-width: 0.8; stroke-linejoin: miter; stroke-linecap: square"/>
   </g>
   <g id="patch_7">
    <path d="M 67.41 283.2336 
L 485.352 283.2336 
" style="fill: none; stroke: #000000; stroke-width: 0.8; stroke-linejoin: miter; stroke-linecap: square"/>
   </g>
   <g id="patch_8">
    <path d="M 67.41 38.1888 
L 485.352 38.1888 
" style="fill: none; stroke: #000000; stroke-width: 0.8; stroke-linejoin: miter; stroke-linecap: square"/>
   </g>
   <g id="text_10">
    <!-- 0.0190 -->
    <g transform="translate(113.255206 266.733527) scale(0.1 -0.1)">
     <defs>
      <path id="MicrosoftYaHei-Bold-31" d="M 2716 4947 
L 2716 0 
L 1700 0 
L 1700 3809 
Q 1513 3647 1188 3517 
Q 863 3388 591 3356 
L 591 4222 
Q 1447 4472 2072 4947 
L 2716 4947 
z
" transform="scale(0.015625)"/>
      <path id="MicrosoftYaHei-Bold-39" d="M 544 941 
Q 931 691 1456 691 
Q 2628 691 2653 2216 
L 2634 2222 
Q 2316 1731 1650 1731 
Q 1047 1731 658 2154 
Q 269 2578 269 3222 
Q 269 3978 737 4450 
Q 1206 4922 1959 4922 
Q 2744 4922 3191 4325 
Q 3638 3728 3638 2659 
Q 3638 1391 3098 653 
Q 2559 -84 1547 -84 
Q 975 -84 544 100 
L 544 941 
z
M 1259 3313 
Q 1259 2928 1445 2709 
Q 1631 2491 1953 2491 
Q 2241 2491 2427 2700 
Q 2613 2909 2613 3219 
Q 2613 3591 2427 3869 
Q 2241 4147 1928 4147 
Q 1625 4147 1442 3906 
Q 1259 3666 1259 3313 
z
" transform="scale(0.015625)"/>
     </defs>
     <use xlink:href="#MicrosoftYaHei-Bold-30"/>
     <use xlink:href="#MicrosoftYaHei-Bold-2e" x="61.669922"/>
     <use xlink:href="#MicrosoftYaHei-Bold-30" x="90.234375"/>
     <use xlink:href="#MicrosoftYaHei-Bold-31" x="151.904297"/>
     <use xlink:href="#MicrosoftYaHei-Bold-39" x="213.574219"/>
     <use xlink:href="#MicrosoftYaHei-Bold-30" x="275.244141"/>
    </g>
   </g>
   <g id="text_11">
    <!-- 0.0446 -->
    <g transform="translate(322.226206 129.369227) scale(0.1 -0.1)">
     <use xlink:href="#MicrosoftYaHei-Bold-30"/>
     <use xlink:href="#MicrosoftYaHei-Bold-2e" x="61.669922"/>
     <use xlink:href="#MicrosoftYaHei-Bold-30" x="90.234375"/>
     <use xlink:href="#MicrosoftYaHei-Bold-34" x="151.904297"/>
     <use xlink:href="#MicrosoftYaHei-Bold-34" x="213.574219"/>
     <use xlink:href="#MicrosoftYaHei-Bold-36" x="275.244141"/>
    </g>
   </g>
   <g id="text_12">
    <!-- 不同协议时间开销箱型图对比 -->
    <g transform="translate(198.381 32.1888) scale(0.12 -0.12)">
     <defs>
      <path id="MicrosoftYaHei-4e0d" d="M 225 4772 
L 6181 4772 
L 6181 4284 
L 3881 4284 
Q 3581 3766 3081 3053 
L 3444 3053 
L 3444 -866 
L 2906 -866 
L 2906 2859 
Q 1838 1541 388 609 
Q 231 834 38 1059 
Q 2006 2291 3213 4284 
L 225 4284 
L 225 4772 
z
M 4069 2859 
Q 5238 2147 6325 1409 
L 5969 916 
Q 4681 1872 3763 2434 
L 4069 2859 
z
" transform="scale(0.015625)"/>
      <path id="MicrosoftYaHei-540c" d="M 1013 -772 
L 531 -772 
L 531 4959 
L 5856 4959 
L 5856 -47 
Q 5856 -741 5125 -741 
Q 4669 -741 4088 -716 
Q 4056 -497 4000 -216 
Q 4619 -272 5025 -272 
Q 5375 -272 5375 78 
L 5375 4497 
L 1013 4497 
L 1013 -772 
z
M 1875 2566 
L 4506 2566 
L 4506 597 
L 2338 597 
L 2338 272 
L 1875 272 
L 1875 2566 
z
M 4044 2116 
L 2338 2116 
L 2338 1047 
L 4044 1047 
L 4044 2116 
z
M 1363 3734 
L 5025 3734 
L 5025 3284 
L 1363 3284 
L 1363 3734 
z
" transform="scale(0.015625)"/>
      <path id="MicrosoftYaHei-7bb1" d="M 2838 3316 
L 5888 3316 
L 5888 -822 
L 5431 -822 
L 5431 -459 
L 3294 -459 
L 3294 -822 
L 2838 -822 
L 2838 3316 
z
M 81 478 
Q 844 1434 1138 2359 
L 238 2359 
L 238 2772 
L 1213 2772 
L 1213 3628 
L 1650 3628 
L 1650 2772 
L 2488 2772 
L 2488 2359 
L 1650 2359 
L 1650 1641 
L 1856 1853 
Q 2306 1472 2644 1141 
L 2325 816 
Q 2006 1166 1650 1497 
L 1650 -841 
L 1213 -841 
L 1213 1584 
Q 856 697 300 -28 
Q 213 197 81 478 
z
M 2125 3459 
Q 1863 3803 1600 4091 
L 1875 4297 
L 1231 4297 
Q 856 3791 388 3384 
Q 263 3534 75 3722 
Q 850 4353 1300 5309 
L 1838 5309 
Q 1681 4978 1494 4684 
L 3325 4684 
L 3325 4297 
L 1950 4297 
Q 2169 4072 2475 3728 
L 2125 3459 
z
M 4913 3397 
Q 4644 3747 4356 4053 
L 4663 4297 
L 4038 4297 
Q 3756 3822 3463 3484 
Q 3306 3622 3081 3791 
Q 3613 4359 4013 5309 
L 4550 5309 
Q 4400 4972 4250 4684 
L 6225 4684 
L 6225 4297 
L 4694 4297 
Q 5025 3966 5269 3678 
L 4913 3397 
z
M 3294 -47 
L 5431 -47 
L 5431 703 
L 3294 703 
L 3294 -47 
z
M 5431 2903 
L 3294 2903 
L 3294 2191 
L 5431 2191 
L 5431 2903 
z
M 3294 1091 
L 5431 1091 
L 5431 1803 
L 3294 1803 
L 3294 1091 
z
" transform="scale(0.015625)"/>
      <path id="MicrosoftYaHei-578b" d="M 150 3503 
L 1100 3503 
Q 1106 3638 1106 4547 
L 413 4547 
L 413 4959 
L 3675 4959 
L 3675 4547 
L 2994 4547 
L 2994 3503 
L 3881 3503 
L 3881 3091 
L 2994 3091 
L 2994 1747 
L 2538 1747 
L 2538 3091 
L 1528 3091 
Q 1450 2191 638 1534 
Q 475 1716 294 1897 
Q 1013 2453 1066 3091 
L 150 3091 
L 150 3503 
z
M 138 -103 
L 2938 -103 
L 2938 741 
L 706 741 
L 706 1172 
L 2938 1172 
L 2938 1659 
L 3425 1659 
L 3425 1172 
L 5713 1172 
L 5713 741 
L 3425 741 
L 3425 -103 
L 6256 -103 
L 6256 -534 
L 138 -534 
L 138 -103 
z
M 5856 5209 
L 5856 2334 
Q 5856 1672 5200 1659 
Q 4825 1647 4331 1659 
Q 4306 1897 4256 2153 
Q 4781 2122 5044 2122 
Q 5400 2122 5400 2516 
L 5400 5209 
L 5856 5209 
z
M 1556 3503 
L 2538 3503 
L 2538 4547 
L 1563 4547 
Q 1563 3791 1556 3503 
z
M 4138 4859 
L 4588 4859 
L 4588 2697 
L 4138 2697 
L 4138 4859 
z
" transform="scale(0.015625)"/>
      <path id="MicrosoftYaHei-56fe" d="M 431 5072 
L 5944 5072 
L 5944 -809 
L 5475 -809 
L 5475 -509 
L 900 -509 
L 900 -809 
L 431 -809 
L 431 5072 
z
M 5475 4622 
L 900 4622 
L 900 -59 
L 5475 -59 
L 5475 4622 
z
M 1113 3091 
Q 1969 3709 2519 4547 
L 2931 4353 
Q 2816 4181 2681 4016 
L 4894 4016 
L 4894 3647 
Q 4434 3091 3722 2644 
Q 4381 2422 5338 2297 
Q 5194 2016 5131 1828 
Q 4022 2081 3256 2400 
Q 2491 2056 1225 1728 
Q 1138 1934 1013 2128 
Q 2109 2353 2825 2644 
Q 2384 2947 2066 3341 
Q 1769 3056 1419 2784 
Q 1294 2916 1113 3091 
z
M 1563 672 
L 1694 1103 
Q 3256 897 4700 622 
L 4531 147 
Q 3150 453 1563 672 
z
M 4275 3628 
L 2347 3628 
Q 2338 3616 2328 3606 
Q 2691 3141 3244 2841 
Q 3891 3188 4275 3628 
z
M 2219 1503 
L 2344 1922 
Q 3263 1784 4275 1609 
L 4144 1172 
Q 3119 1378 2219 1503 
z
" transform="scale(0.015625)"/>
      <path id="MicrosoftYaHei-5bf9" d="M 694 3691 
Q 1234 2909 1741 2166 
Q 2113 3081 2213 4147 
L 250 4147 
L 250 4622 
L 2725 4622 
L 2725 4166 
Q 2553 2809 2059 1700 
Q 2569 953 3044 247 
L 2594 -53 
Q 2203 563 1803 1181 
Q 1247 163 388 -622 
Q 263 -428 81 -166 
Q 975 638 1500 1647 
Q 919 2538 319 3434 
L 694 3691 
z
M 2975 3941 
L 5056 3941 
L 5056 5278 
L 5563 5278 
L 5563 3941 
L 6325 3941 
L 6325 3466 
L 5563 3466 
L 5563 191 
Q 5563 -716 4669 -716 
Q 4388 -716 3744 -709 
Q 3713 -478 3644 -147 
Q 4263 -197 4588 -197 
Q 5056 -197 5056 278 
L 5056 3466 
L 2975 3466 
L 2975 3941 
z
M 3088 2684 
L 3494 2928 
Q 4000 2184 4388 1484 
L 3919 1216 
Q 3550 1922 3088 2684 
z
" transform="scale(0.015625)"/>
      <path id="MicrosoftYaHei-6bd4" d="M 3225 5316 
L 3744 5316 
L 3744 2672 
Q 4959 3550 5744 4509 
L 6188 4178 
Q 5175 3063 3744 2056 
L 3744 247 
Q 3744 -166 4106 -166 
L 5175 -166 
Q 5588 -166 5650 203 
Q 5725 678 5763 1247 
Q 6025 1147 6300 1066 
Q 6244 484 6150 22 
Q 6019 -622 5319 -622 
L 3944 -622 
Q 3225 -622 3225 159 
L 3225 5316 
z
M 1063 5153 
L 1063 3278 
L 2825 3278 
L 2825 2809 
L 1063 2809 
L 1063 153 
Q 1713 428 2763 928 
Q 2763 634 2788 366 
Q 1869 -3 1231 -328 
Q 956 -472 725 -672 
L 344 -184 
Q 544 -34 544 272 
L 544 5153 
L 1063 5153 
z
" transform="scale(0.015625)"/>
     </defs>
     <use xlink:href="#MicrosoftYaHei-4e0d"/>
     <use xlink:href="#MicrosoftYaHei-540c" x="100"/>
     <use xlink:href="#MicrosoftYaHei-534f" x="200"/>
     <use xlink:href="#MicrosoftYaHei-8bae" x="300"/>
     <use xlink:href="#MicrosoftYaHei-65f6" x="400"/>
     <use xlink:href="#MicrosoftYaHei-95f4" x="500"/>
     <use xlink:href="#MicrosoftYaHei-5f00" x="600"/>
     <use xlink:href="#MicrosoftYaHei-9500" x="700"/>
     <use xlink:href="#MicrosoftYaHei-7bb1" x="800"/>
     <use xlink:href="#MicrosoftYaHei-578b" x="900"/>
     <use xlink:href="#MicrosoftYaHei-56fe" x="1000"/>
     <use xlink:href="#MicrosoftYaHei-5bf9" x="1100"/>
     <use xlink:href="#MicrosoftYaHei-6bd4" x="1200"/>
    </g>
   </g>
  </g>
 </g>
 <defs>
  <clipPath id="pb050b09f79">
   <rect x="67.41" y="38.1888" width="417.942" height="245.0448"/>
  </clipPath>
 </defs>
</svg>
